<svg width="50" height="50" viewBox="0 0 50 50" fill="none" xmlns="http://www.w3.org/2000/svg">
<path d="M6.32715 46.4834C7.20769 43.0772 9.87133 40.1764 12.1607 37.803C13.8118 37.3635 15.2426 40.7697 12.8212 41.8685C10.884 42.7475 9.07885 44.7253 6.32715 46.4834Z" fill="#F1DAAC"/>
<path fill-rule="evenodd" clip-rule="evenodd" d="M12.0366 37.594L12.0995 37.5773C12.6022 37.4435 13.0775 37.6079 13.4496 37.9191C13.8192 38.2282 14.1003 38.6902 14.2418 39.1959C14.3837 39.7029 14.3901 40.2705 14.1883 40.7921C13.9848 41.3186 13.5752 41.7823 12.9165 42.0812C11.978 42.507 11.0638 43.2029 10.0237 44.0292C9.91456 44.1158 9.80417 44.2039 9.69235 44.293C8.74442 45.0488 7.69345 45.8868 6.45169 46.6802L5.95117 47L6.09983 46.4249C6.99801 42.9504 9.70787 40.0082 11.9915 37.6409L12.0366 37.594ZM6.32595 46.4834C6.42519 46.42 6.52321 46.3563 6.62005 46.2923C7.72413 45.5636 8.67472 44.8057 9.54682 44.1103C10.7189 43.1758 11.7493 42.3543 12.82 41.8685C15.2414 40.7697 13.8106 37.3635 12.1595 37.803C9.94644 40.0973 7.38363 42.8844 6.41986 46.1445C6.38662 46.2569 6.35529 46.3698 6.32595 46.4834Z" fill="black"/>
<mask id="mask0_1889:293" style="mask-type:alpha" x="6" y="37" width="9" height="10">
<path d="M6.32715 46.4834C7.20769 43.0772 9.87133 40.1764 12.1607 37.803C13.8118 37.3635 15.2426 40.7697 12.8212 41.8685C10.884 42.7475 9.07885 44.7253 6.32715 46.4834Z" fill="#F1DAAC"/>
</mask>
<g mask="url(#mask0_1889:293)">
<path fill-rule="evenodd" clip-rule="evenodd" d="M9.83671 42.5518H6.52175V41.6176H10.8362L10.6079 44.9967L9.67577 44.9337L9.83671 42.5518ZM7.69581 44.6927H4.38086V43.7585H8.69527L8.46696 47.1376L7.53487 47.0746L7.69581 44.6927Z" fill="#6E5246"/>
<path d="M11.3485 40.8391H7.68949C10.051 39.9957 15.0308 38.309 16.0584 38.309C17.343 38.309 17.849 41.5398 16.0584 42.3572C14.2679 43.1746 4.73117 50.1812 5.5486 48.0014C6.20254 46.2575 9.68766 42.4999 11.3485 40.8391Z" fill="black" fill-opacity="0.22"/>
</g>
<path d="M19.6138 26.778C19.648 26.7446 19.6986 26.7343 19.7431 26.7517C20.6863 27.121 22.0709 27.8618 23.0573 28.6683C23.5489 29.0701 23.954 29.4982 24.1494 29.9145C24.2479 30.1243 24.2963 30.3379 24.2691 30.5467C24.2416 30.7577 24.1385 30.9515 23.9557 31.1218C23.5597 31.4909 23.0945 32.1949 22.612 33.0986C22.1315 33.9985 21.64 35.0842 21.1886 36.2057C20.2846 38.452 19.548 40.8258 19.38 42.126C19.2118 43.4277 19.3209 44.3724 19.4697 44.9883C19.5442 45.2964 19.6286 45.5227 19.6936 45.6706C19.7261 45.7446 19.7538 45.799 19.7729 45.8343C19.7824 45.8519 19.7899 45.8648 19.7947 45.8729L19.7999 45.8815L19.8009 45.8831L19.801 45.8832L19.801 45.8833C19.8369 45.939 19.8216 46.0133 19.7665 46.0502C19.7113 46.0872 19.6367 46.0731 19.5989 46.0185L19.6988 45.9492L19.5988 46.0185L19.5988 46.0184L19.5986 46.0181L19.5977 46.0168L19.5942 46.0119L19.5809 45.9926L19.5304 45.9192C19.4869 45.8556 19.4245 45.7641 19.349 45.6521C19.1982 45.4282 18.995 45.1222 18.7861 44.7944C18.5773 44.4667 18.3619 44.116 18.1869 43.8029C18.0794 43.6106 17.9845 43.4279 17.9161 43.2714C17.5482 43.9647 17.4602 44.7664 17.4724 45.4259C17.4792 45.7893 17.5163 46.1059 17.5517 46.3313C17.5693 46.444 17.5866 46.5337 17.5993 46.5949C17.6056 46.6255 17.6109 46.649 17.6145 46.6646L17.6186 46.6821L17.6196 46.6863L17.6198 46.6872L17.6199 46.6874L19.6138 26.778ZM19.6138 26.778C18.7767 27.5956 17.3552 28.7903 15.8673 29.8807C14.3767 30.9731 12.8327 31.9508 11.7485 32.3443C9.63755 33.1105 8.37907 33.4732 6.43009 33.1068C6.38056 33.0975 6.33043 33.1197 6.30402 33.1626C6.27762 33.2056 6.28041 33.2603 6.31105 33.3003C6.55902 33.6241 7.03885 34.0853 7.68162 34.4329C8.19383 34.7099 8.81346 34.9168 9.50397 34.9212L19.6138 26.778Z" stroke="black" stroke-width="0.243265" stroke-linejoin="round"/>
<path d="M11.791 32.4586C13.9949 31.6587 18.0155 28.5102 19.6997 26.865C21.5671 27.5962 25.1919 29.8044 23.8738 31.0328C22.2261 32.5683 19.6005 39.4781 19.2603 42.1104C18.9202 44.7427 19.6997 45.9492 19.6997 45.9492C19.6997 45.9492 18.1253 43.6825 17.9422 42.9878C16.9536 44.5233 17.5028 46.7169 17.5028 46.7169C17.5028 46.7169 16.4044 45.0717 16.4044 42.9878C16.4044 42.0416 15.8552 43.5362 16.1847 45.4008C16.2927 46.0118 14.9764 42.1104 14.9764 42.1104C14.9764 42.1104 14.6469 42.1104 13.878 44.1943C13.5608 45.0539 13.2189 42.4394 13.878 40.6846C12.1205 41.3426 12.45 44.633 12.0106 42.9878C11.6152 41.5072 12.4866 39.6243 12.9992 38.9297C12.2083 39.1052 10.0334 40.2458 9.15468 40.6846C9.15468 39.9826 10.3264 38.6372 10.9122 38.0523C10.0334 38.7103 6.84795 38.0523 6.84795 38.0523C6.84795 38.0523 8.15764 37.9198 10.0335 36.5168C7.83657 37.1748 5.85938 36.1877 5.85938 36.1877C5.85938 36.1877 7.96302 36.0124 10.0335 34.7619C8.27595 35.0251 6.88459 33.8479 6.4086 33.2264C8.39119 33.5991 9.67573 33.2264 11.791 32.4586Z" fill="#CAAB86"/>
<mask id="mask1_1889:293" style="mask-type:alpha" x="5" y="26" width="20" height="21">
<path d="M11.7388 32.4702C13.8991 31.5591 18.0155 28.5102 19.6997 26.865C21.5671 27.5962 25.1919 29.8044 23.8738 31.0328C22.2261 32.5683 19.6005 39.4781 19.2603 42.1104C18.9202 44.7427 19.6997 45.9492 19.6997 45.9492C19.6997 45.9492 18.1253 43.6825 17.9422 42.9878C16.9536 44.5233 17.5028 46.7169 17.5028 46.7169C17.5028 46.7169 16.4044 45.0717 16.4044 42.9878C16.4044 42.0416 15.8552 43.5362 16.1847 45.4008C16.2927 46.0118 14.9764 42.1104 14.9764 42.1104C14.9764 42.1104 14.6469 42.1104 13.878 44.1943C13.5608 45.0539 13.2189 42.4394 13.878 40.6846C12.1205 41.3426 12.45 44.633 12.0106 42.9878C11.6152 41.5072 12.4866 39.6243 12.9992 38.9297C12.2083 39.1052 10.0334 40.2458 9.15468 40.6846C9.15468 39.9826 10.3264 38.6372 10.9122 38.0523C10.0334 38.7103 6.84795 38.0523 6.84795 38.0523C6.84795 38.0523 8.15764 37.9198 10.0335 36.5168C7.83657 37.1748 5.85938 36.1877 5.85938 36.1877C5.85938 36.1877 7.96302 36.0124 10.0335 34.7619C8.27595 35.0251 6.88459 33.8479 6.4086 33.2264C8.27442 33.2264 9.15468 33.5601 11.7388 32.4702Z" fill="#CAAB86"/>
</mask>
<g mask="url(#mask1_1889:293)">
<path d="M8.70268 41.2284C10.1818 38.5815 14.1133 36.0903 15.9039 34.689L18.4729 35.5842C17.6166 37.6343 15.7015 41.9369 14.8918 42.7465C13.8797 43.7586 14.0355 45.2767 13.9576 45.5102C13.8798 45.7438 7.22352 43.8753 8.70268 41.2284Z" fill="#997A69"/>
<path d="M16.6821 28.928L18.9397 26.2032L21.7813 31.1078L15.2029 37.4137L10.2983 39.1264L6.32793 38.4647L4.8877 36.3627C6.96371 35.9086 11.3727 34.8913 12.4003 34.4554C13.4279 34.0194 16.695 32.042 18.2002 31.1078L14.3466 32.548L17.5384 30.6017L16.6821 28.928Z" fill="#997A69"/>
<path d="M15.2027 43.4082C14.8913 41.6955 16.2148 39.1264 17.0712 37.0245C18.187 34.9225 20.4421 30.6796 20.5355 30.5239C20.629 30.3682 22.9619 30.9261 24.1167 31.2246L22.4429 35.6231L21.2751 34.8446C20.8859 35.5712 19.9283 37.5772 19.2121 39.7881C18.3168 42.5518 19.251 44.4592 19.6013 46.5612C19.8816 48.2427 17.5642 47.9365 16.3705 47.5732C16.0851 46.7558 15.4519 44.7784 15.2027 43.4082Z" fill="#997A69"/>
</g>
<path d="M9.32573 34.9615C10.9606 34.3776 14.1914 32.7039 15.2035 32.0811M9.13086 36.8299C10.8825 36.4406 12.5952 36.2071 13.7241 35.5454M10.2991 38.5037C12.0507 36.9078 14.2306 35.0783 15.3205 34.2608M12.4782 39.2433C12.7896 39.0487 13.4902 38.6984 13.4902 38.6984M13.5687 41.0339C14.0358 40.3333 14.3472 39.6715 15.6706 38.5816M14.9695 42.4352C14.736 41.5399 15.0474 39.2433 16.0984 37.842M16.2546 43.3305C16.3714 41.7735 17.189 39.7883 18.2401 38.387M17.9278 43.3304L17.9216 43.3077C17.6128 42.1885 17.345 41.2178 17.4996 39.6325" stroke="black" stroke-width="0.121632"/>
<path d="M16.0214 32.6824C16.4569 31.4781 18.7429 29.1788 21.3556 27.0986C21.7184 27.2081 22.4441 27.6898 22.4441 28.7409C22.4441 30.0547 20.9201 33.6678 20.4846 34.8722C20.0492 36.0765 17.7071 38.6729 17.5454 38.2663C17.3277 37.7189 17.618 37.4999 17.7631 37.2809C17.364 37.3904 16.2826 37.7189 16.0214 37.7189C15.7602 37.7189 16.1303 36.551 16.3479 35.9671C16.094 36.1495 15.4771 36.4926 15.0417 36.405C14.4974 36.2955 15.586 33.8868 16.0214 32.6824Z" fill="#FFF99E"/>
<path fill-rule="evenodd" clip-rule="evenodd" d="M21.305 26.8395L21.4222 26.8749C21.8573 27.0062 22.6768 27.5616 22.6768 28.7408C22.6768 29.1032 22.5737 29.6015 22.4235 30.1459C22.2716 30.6962 22.0653 31.3147 21.8467 31.9261C21.628 32.538 21.3958 33.1459 21.1915 33.6749C21.1484 33.7867 21.1065 33.8948 21.0663 33.9986C20.9156 34.3878 20.7885 34.7163 20.7034 34.9515C20.5839 35.2821 20.3416 35.6905 20.0552 36.1013C19.7661 36.5159 19.4218 36.9476 19.0867 37.3277C18.7529 37.7064 18.422 38.0408 18.1593 38.2571C18.0311 38.3626 17.9036 38.4531 17.7914 38.5012C17.7381 38.5241 17.6591 38.5504 17.5726 38.5403C17.5252 38.5349 17.4726 38.518 17.4248 38.4817C17.3768 38.4452 17.3459 38.3986 17.3276 38.3525C17.2193 38.0803 17.2115 37.8562 17.2653 37.6648C17.1442 37.6991 17.0187 37.7343 16.9009 37.7663C16.7233 37.8145 16.5474 37.86 16.3981 37.8936C16.2574 37.9253 16.116 37.9523 16.0206 37.9523C15.9577 37.9523 15.8937 37.9337 15.8386 37.8923C15.7863 37.8531 15.7552 37.8034 15.7367 37.761C15.7022 37.6819 15.6965 37.594 15.6973 37.5245C15.699 37.3787 15.7328 37.1935 15.7771 37.0077C15.818 36.8362 15.8714 36.6503 15.9277 36.4707C15.9021 36.482 15.8762 36.493 15.8499 36.5036C15.5978 36.606 15.2815 36.6916 14.9948 36.6339C14.8132 36.5974 14.72 36.4581 14.6835 36.3244C14.65 36.2015 14.654 36.0574 14.6713 35.9176C14.7068 35.6326 14.8121 35.2647 14.942 34.8796C15.0981 34.417 15.3048 33.8884 15.4898 33.4157C15.6091 33.1107 15.7193 32.8288 15.801 32.6029C15.9218 32.2689 16.1629 31.8772 16.4842 31.4533C16.808 31.0261 17.2229 30.5536 17.7033 30.0566C18.6643 29.0624 19.8969 27.9607 21.2093 26.9158L21.305 26.8395ZM16.0294 36.1617C16.1587 36.093 16.2698 36.0226 16.3471 35.967C16.3085 36.0705 16.2652 36.1923 16.2214 36.3228C16.0181 36.9282 15.8057 37.7188 16.0206 37.7188C16.2218 37.7188 16.9095 37.5239 17.3974 37.3843C17.4151 37.3793 17.4325 37.3743 17.4496 37.3694C17.5734 37.3339 17.6817 37.3029 17.7623 37.2808C17.739 37.3159 17.7121 37.351 17.684 37.3875C17.638 37.4473 17.5892 37.5107 17.5495 37.5838C17.4624 37.744 17.419 37.9505 17.5446 38.2662C17.7063 38.6728 20.0484 36.0765 20.4838 34.8721C20.5698 34.6342 20.6983 34.3022 20.8492 33.9126C21.4619 32.3299 22.4433 29.7951 22.4433 28.7408C22.4433 27.6897 21.7176 27.208 21.3547 27.0985C18.7421 29.1788 16.4561 31.478 16.0206 32.6824C15.9341 32.9216 15.8218 33.2084 15.7017 33.5152C15.2171 34.753 14.6047 36.3172 15.0409 36.4049C15.3437 36.4658 15.7342 36.3185 16.0294 36.1617Z" fill="black"/>
<mask id="mask2_1889:293" style="mask-type:alpha" x="14" y="27" width="9" height="12">
<path d="M16.0195 32.6825C16.4549 31.4781 18.741 29.1789 21.3536 27.0986C21.7165 27.2081 22.4421 27.6899 22.4421 28.7409C22.4421 30.0548 20.9181 33.6679 20.4827 34.8722C20.0472 36.0766 17.7052 38.673 17.5434 38.2664C17.3257 37.7189 17.616 37.4999 17.7612 37.281C17.362 37.3905 16.2807 37.7189 16.0195 37.7189C15.7583 37.7189 16.1283 36.5511 16.346 35.9671C16.092 36.1496 15.4752 36.4927 15.0397 36.4051C14.4954 36.2956 15.584 33.8869 16.0195 32.6825Z" fill="#FFF99E"/>
</mask>
<g mask="url(#mask2_1889:293)">
<path d="M15.5146 35.8569C15.5535 35.2731 17.6944 30.9134 20.2635 29.4732C20.6397 29.2137 21.6648 28.7647 22.7547 29.045C24.1171 29.3953 22.093 32.6261 21.8205 34.261C21.548 35.8959 18.2783 38.7763 18.0058 38.3092C17.7333 37.8421 18.2004 36.8301 18.0058 37.0636C17.8434 37.2585 16.407 37.8058 16.0491 37.9816C16.0237 38.0172 16.001 38.0368 15.9817 38.0368C15.9495 38.0368 15.9781 38.0165 16.0491 37.9816C16.2276 37.7308 16.5346 36.6863 16.6823 36.1294C16.2801 36.2332 15.4834 36.3241 15.5146 35.8569Z" fill="#E0B74B"/>
<path d="M19.9513 31.3805C19.6399 30.9913 18.9392 30.0181 18.5889 28.6168C19.2246 28.5649 20.6753 28.4923 21.3915 28.6168C22.2868 28.7725 22.9096 31.4584 22.7539 32.3147C22.6293 32.9998 21.5602 33.4306 21.1579 33.4825L21.3915 31.9255L21.0412 32.4704C21.0412 32.4704 20.2627 31.7698 19.9513 31.3805Z" fill="black"/>
</g>
<path d="M30.5792 5.44479C29.9163 6.97872 28.4491 6.89392 27.5029 6.8574C28.3958 5.72856 28.9416 4.45873 28.3958 3.36307C27.9815 2.53153 26.5399 2.37698 25.4481 4.34916C24.4923 6.07582 25.8849 7.19786 26.8674 8.18395C27.85 9.17004 27.5224 9.38917 26.8674 9.49874C26.2125 9.6083 24.3111 8.18395 23.8106 7.52656C23.241 6.77842 21.8455 3.14395 25.4481 2.04827C29.0507 0.952598 31.3216 3.72687 30.5792 5.44479Z" fill="#749AD3"/>
<path fill-rule="evenodd" clip-rule="evenodd" d="M27.0348 7.07309L27.3199 6.71256C28.2063 5.59195 28.666 4.42896 28.1869 3.46727C28.0289 3.1502 27.6713 2.94868 27.2197 3.03424C26.7629 3.12077 26.1786 3.51222 25.6526 4.46233C25.4312 4.8623 25.3521 5.21491 25.3621 5.53078C25.3721 5.84771 25.4724 6.14384 25.6342 6.42908C25.9089 6.9134 26.3404 7.33714 26.7695 7.75849C26.8579 7.84531 26.9462 7.93203 27.033 8.01915C27.2841 8.27114 27.4628 8.48505 27.5741 8.66926C27.6823 8.84831 27.7491 9.03603 27.71 9.21887C27.6682 9.41452 27.5233 9.52937 27.3828 9.59652C27.2444 9.66267 27.0741 9.70103 26.9061 9.72914C26.7787 9.75046 26.6412 9.73227 26.5105 9.69865C26.3769 9.66429 26.2332 9.60923 26.0862 9.54136C25.792 9.40558 25.4655 9.2096 25.1492 8.99299C24.5227 8.5638 23.8978 8.02658 23.6249 7.66808C23.4622 7.4544 23.258 7.06163 23.0982 6.58306C22.9373 6.10137 22.8155 5.51503 22.8315 4.91159C22.8476 4.30682 23.0026 3.67755 23.4033 3.12433C23.8051 2.56967 24.4398 2.11093 25.3803 1.82488C27.252 1.25563 28.8032 1.68714 29.7927 2.51209C30.7678 3.32494 31.2195 4.55216 30.7937 5.53748C30.4317 6.37527 29.8399 6.78101 29.213 6.96424C28.6271 7.13545 28.0118 7.11121 27.5523 7.0931C27.5326 7.09232 27.5132 7.09156 27.4941 7.09082L27.0348 7.07309ZM27.6765 6.63034C28.4638 5.5604 28.9055 4.38587 28.396 3.36312C27.9817 2.53158 26.5401 2.37703 25.4483 4.34921C24.5726 5.93102 25.6679 7.0054 26.6133 7.93268C26.6998 8.0176 26.7852 8.10128 26.8676 8.184C27.8501 9.17009 27.5225 9.38922 26.8676 9.49879C26.2126 9.60835 24.3112 8.184 23.8107 7.52661C23.2412 6.77847 21.8457 3.144 25.4483 2.04832C29.0509 0.952645 31.3217 3.72691 30.5793 5.44484C29.9805 6.83068 28.725 6.89525 27.7905 6.86787C27.7085 6.86547 27.629 6.86236 27.5526 6.85937C27.5359 6.85872 27.5194 6.85807 27.5031 6.85744C27.5625 6.78233 27.6204 6.7066 27.6765 6.63034Z" fill="black"/>
<mask id="mask3_1889:293" style="mask-type:alpha" x="23" y="1" width="8" height="9">
<path d="M30.5792 5.44479C29.9163 6.97872 28.4491 6.89392 27.5029 6.8574C28.3958 5.72856 28.9416 4.45873 28.3958 3.36307C27.9815 2.53153 26.5399 2.37698 25.4481 4.34916C24.4923 6.07582 25.8849 7.19786 26.8674 8.18395C27.85 9.17004 27.5224 9.38917 26.8674 9.49874C26.2125 9.6083 24.3111 8.18395 23.8106 7.52656C23.241 6.77842 21.8455 3.14395 25.4481 2.04827C29.0507 0.952598 31.3216 3.72687 30.5792 5.44479Z" fill="#749AD3"/>
</mask>
<g mask="url(#mask3_1889:293)">
<path opacity="0.3" d="M24.7394 6.46822C24.1555 6.19574 24.2723 6.93532 24.1166 8.14201C23.2602 7.5192 22.832 6.54607 22.832 5.53402C22.832 4.52196 24.3501 2.88709 25.5957 2.26429C26.8413 1.64148 28.0091 2.41999 28.4762 3.3542C28.8499 4.10156 26.9192 5.92327 25.9071 6.7407C25.7125 6.7407 25.2065 6.6862 24.7394 6.46822Z" fill="black"/>
</g>
<path d="M18.4898 28.7962C12.9043 21.6721 19.8081 8.90304 26.8398 8.46343C31.0465 8.20044 35.3933 8.90317 38.5956 12.8598C40.4636 15.1678 42.1114 21.5424 38.5956 28.7962C35.0798 36.0501 22.8846 34.4015 18.4898 28.7962Z" fill="#749AD3"/>
<path fill-rule="evenodd" clip-rule="evenodd" d="M21.6285 10.6491C23.2027 9.25632 25 8.34437 26.8253 8.23025C31.0662 7.96513 35.5062 8.67124 38.7773 12.7128C40.7114 15.1025 42.3544 21.5767 38.8059 28.898C36.9911 32.6422 32.949 34.0602 28.8605 33.8516C24.7734 33.643 20.5552 31.8088 18.3061 28.9402C15.438 25.2821 15.7951 20.2054 17.7213 16.0253C18.6867 13.9303 20.0528 12.0431 21.6285 10.6491ZM26.8399 8.46335C19.8082 8.90295 12.9044 21.6721 18.4899 28.7961C22.8847 34.4014 35.0799 36.05 38.5957 28.7961C42.1115 21.5423 40.4637 15.1677 38.5957 12.8597C35.3934 8.90308 31.0466 8.20036 26.8399 8.46335Z" fill="black"/>
<mask id="mask4_1889:293" style="mask-type:alpha" x="16" y="8" width="25" height="26">
<path d="M18.4898 28.7962C12.9043 21.6721 19.8081 8.90304 26.8398 8.46343C31.0465 8.20044 35.3933 8.90317 38.5956 12.8598C40.4636 15.1678 42.1114 21.5424 38.5956 28.7962C35.0798 36.0501 22.8846 34.4015 18.4898 28.7962Z" fill="#749AD3"/>
</mask>
<g mask="url(#mask4_1889:293)">
<path d="M30.5011 9.85468C32.0969 10.1661 33.5632 12.2681 34.0433 13.3969C34.4196 13.1504 35.0629 12.3252 36.1842 12.2291C37.5466 12.1124 39.6096 13.319 40.5049 14.4479C41.3158 15.4704 41.9841 16.8612 42.4901 18.1458C42.9961 19.4303 42.7626 22.945 36.1842 21.8048C33.2648 21.2987 34.0433 17.9122 32.4863 18.8075C30.9292 19.7028 23.4167 19.7806 23.3389 14.7982C23.261 9.81575 27.928 9.35261 30.5011 9.85468Z" fill="#FD7E7E"/>
<path d="M25.6354 21.3377C20.0302 22.3467 17.7725 24.0625 15.0088 27.3322C15.1904 27.5268 15.6705 28.3209 16.1376 29.9402C16.7215 31.9643 26.7253 35.3119 29.2555 35.779C31.2796 36.1527 39.3371 32.5742 42.2955 31.4583C41.6337 29.6029 38.6365 26.7873 36.4567 24.3739C33.978 21.6297 29.5279 20.6371 25.6354 21.3377Z" fill="#94C489"/>
<g style="mix-blend-mode:multiply">
<path d="M22.9108 22.4664C21.1079 20.2669 22.5994 10.2828 26.959 8.10298C25.1295 6.62383 26.0015 8.15746 21.3927 8.37544C15.6317 8.64792 14.5029 19.7027 14.5029 24.5295C14.5029 29.3562 19.7831 35.0081 31.7469 36.791C41.6728 38.2701 46.6553 25.0355 46.6942 24.1791C46.7331 23.3228 39.4151 26.2811 34.8609 27.371C30.1808 28.4911 25.3676 25.4637 22.9108 22.4664Z" fill="#16494D" fill-opacity="0.14"/>
</g>
<path d="M17.6168 15.5378C19.5241 12.3848 22.2099 10.5553 22.4435 11.4506C22.677 12.3459 21.3536 15.3821 21.5871 17.7954C21.8207 20.2088 22.677 25.2302 26.6085 26.865C30.54 28.4999 35.1332 28.422 36.6512 28.3053C38.1693 28.1885 39.1035 31.7696 37.0016 32.3146C34.8996 32.8595 28.6326 33.132 26.2193 32.3146C23.8059 31.4971 21.0811 30.8499 18.6288 26.359C17.3295 23.9795 18.2481 16.9862 18.3478 16.393C18.2018 16.8986 16.2415 21.9196 17.1886 24.9188C18.3563 28.6167 20.8865 32.081 26.2193 33.0931C30.4855 33.9027 33.7318 33.9494 42.3733 31.03C40.3362 32.8336 35.1332 35.6544 32.3305 35.4675C28.8273 35.234 20.3415 34.6501 18.9791 32.3146C17.6168 29.9791 14.5417 24.4906 15.0088 21.8047C15.3824 19.6561 16.9031 16.7315 17.6168 15.5378Z" fill="#073228" fill-opacity="0.25"/>
</g>
<path d="M29.1853 13.6577C29.6249 14.0992 30.8336 15.4237 30.8336 15.5341C30.2842 15.6812 29.0095 16.0197 28.3063 16.1963C27.4273 16.4171 26.3283 17.3001 26.2184 17.3001C26.1085 17.3001 25.559 16.086 26.1085 15.8652C26.548 15.6886 28.4161 15.2765 29.2952 15.0926C29.0754 14.835 28.548 14.2316 28.1963 13.8784C27.8447 13.5252 26.9509 12.8483 26.548 12.5539H26.8777C26.8044 12.5171 26.6579 12.3332 26.6579 12.3332C26.6579 12.3332 26.9509 12.37 27.0975 12.4435L26.8777 12.2228L27.4271 12.3332C27.3539 12.2596 27.2073 12.0904 27.2073 12.0021C27.2073 11.8917 28.7458 13.2162 29.1853 13.6577Z" fill="black"/>
<path d="M36.4379 15.6444C37.0973 15.3133 38.306 15.4237 38.4159 15.4237L37.9764 15.6444H38.5258L38.0862 15.8652L38.6357 16.086C38.306 16.1595 37.7786 16.3288 37.4269 16.4171C37.0753 16.5054 36.5478 16.6746 36.4379 16.7482C36.6211 16.969 37.0533 17.4988 37.317 17.852C37.6467 18.2935 37.8665 18.9557 37.8665 19.0661C37.8665 19.1544 38.2694 20.0227 38.1961 20.1699L37.4269 19.2869V19.7284C37.2071 19.434 36.4819 18.5142 36.2182 18.0727C35.9544 17.6312 35.4489 16.9322 35.1193 16.5275C35.3391 16.3435 35.9105 15.9094 36.4379 15.6444Z" fill="black"/>
<g opacity="0.2">
<path d="M37.311 12.3458C37.311 12.8402 36.9102 13.2411 36.4157 13.2411C35.9213 13.2411 35.5204 12.8402 35.5204 12.3458C35.5204 11.8513 35.9213 11.4505 36.4157 11.4505C36.9102 11.4505 37.311 11.8513 37.311 12.3458Z" fill="white"/>
<path d="M31.3944 13.28C31.3944 13.4305 31.2724 13.5525 31.1219 13.5525C30.9714 13.5525 30.8494 13.4305 30.8494 13.28C30.8494 13.1295 30.9714 13.0075 31.1219 13.0075C31.2724 13.0075 31.3944 13.1295 31.3944 13.28Z" fill="white"/>
<path d="M25.5556 26.8649C25.5556 27.6389 24.9282 28.2662 24.1542 28.2662C23.3803 28.2662 22.7529 27.6389 22.7529 26.8649C22.7529 26.091 23.3803 25.4636 24.1542 25.4636C24.9282 25.4636 25.5556 26.091 25.5556 26.8649Z" fill="white"/>
</g>
<path opacity="0.2" d="M21.8196 28.422C21.8196 28.551 21.7151 28.6556 21.5861 28.6556C21.4571 28.6556 21.3525 28.551 21.3525 28.422C21.3525 28.293 21.4571 28.1885 21.5861 28.1885C21.7151 28.1885 21.8196 28.293 21.8196 28.422Z" fill="white"/>
<path d="M40.6074 26.5154C38.9595 26.845 37.271 22.6781 37.7504 19.4834C38.0802 17.2858 39.7981 16.3237 41.9259 19.4834C43.5955 21.9625 43.0246 26.0319 40.6074 26.5154Z" fill="#CAAB86"/>
<path fill-rule="evenodd" clip-rule="evenodd" d="M38.1643 24.4088C37.583 22.9766 37.2722 21.0938 37.519 19.4487C37.6877 18.3246 38.2303 17.3901 39.1258 17.2439C39.5704 17.1713 40.0551 17.306 40.554 17.6489C41.0518 17.9909 41.5775 18.5486 42.1192 19.3529C42.9911 20.6477 43.2741 22.3469 43.029 23.787C42.7853 25.2189 41.9985 26.4752 40.6528 26.7444C40.1286 26.8492 39.6382 26.5879 39.2303 26.1676C38.8196 25.7443 38.455 25.1249 38.1643 24.4088ZM37.75 19.4834C37.2706 22.6781 38.959 26.845 40.607 26.5154C43.0241 26.0319 43.595 21.9625 41.9255 19.4834C39.7976 16.3237 38.0798 17.2858 37.75 19.4834Z" fill="black"/>
<mask id="mask5_1889:293" style="mask-type:alpha" x="37" y="17" width="6" height="10">
<path d="M40.6065 26.5154C38.9585 26.845 37.2701 22.6781 37.7495 19.4834C38.0792 17.2858 39.7971 16.3237 41.925 19.4834C43.5945 21.9625 43.0236 26.0319 40.6065 26.5154Z" fill="#CAAB86"/>
</mask>
<g mask="url(#mask5_1889:293)">
<path opacity="0.3" d="M39.9204 24.8021C38.0131 24.0625 38.3634 19.3136 38.8694 17.0948C38.3375 17.1857 37.0477 17.6554 36.1447 18.8076C35.0158 20.2478 36.8453 23.5565 37.2735 25.5806C37.7017 27.6047 40.6211 27.9161 44.2801 28.0329C47.9391 28.1496 43.774 20.4035 43.6183 22.5833C43.4626 24.7631 41.8277 25.5416 39.9204 24.8021Z" fill="black"/>
</g>
<path d="M34.8016 27.0645C33.2581 28.5988 30.1598 33.6401 31.4829 34.9553C32.5181 35.9842 33.5737 35.6903 35.6724 34.5169C37.6683 33.4009 40.1928 29.9139 40.1928 27.8316C40.1928 27.1784 38.9065 27.8682 38.5389 28.3797C38.6125 27.6856 38.7154 26.2536 38.5389 26.0782C38.3184 25.859 37.2159 27.2837 37.1057 27.5029C36.9954 27.7221 37.2271 26.7357 37.2271 25.7494C37.2271 24.7631 36.3451 25.5302 34.8016 27.0645Z" fill="#FFF99E"/>
<path fill-rule="evenodd" clip-rule="evenodd" d="M31.8581 30.9881C32.6682 29.3556 33.8423 27.6886 34.637 26.8987C35.4022 26.1381 36.0286 25.541 36.4688 25.2639C36.581 25.1933 36.6923 25.136 36.7992 25.1037C36.9048 25.0719 37.0304 25.0573 37.1521 25.1061C37.2812 25.1578 37.3604 25.2622 37.4041 25.3757C37.4459 25.4841 37.4607 25.6124 37.4607 25.7492C37.4607 26.0851 37.4347 26.4194 37.4043 26.7068C37.4695 26.628 37.5376 26.5482 37.6065 26.4708C37.7677 26.2897 37.9408 26.1127 38.0939 25.9933C38.1684 25.9351 38.2533 25.8785 38.34 25.8475C38.4213 25.8184 38.5793 25.7888 38.7036 25.9124C38.775 25.9834 38.8044 26.0812 38.8196 26.1437C38.8376 26.2177 38.849 26.3042 38.8565 26.3948C38.8716 26.5772 38.8727 26.8042 38.8662 27.0407C38.8594 27.2848 38.8443 27.5457 38.8262 27.7893C39.0128 27.6537 39.22 27.5348 39.4131 27.4535C39.6066 27.372 39.8288 27.3095 40.0212 27.3387C40.1243 27.3544 40.2339 27.3991 40.3156 27.4961C40.3967 27.5926 40.4264 27.7123 40.4264 27.8315C40.4264 28.9464 39.7604 30.3882 38.8731 31.6695C37.9816 32.9566 36.8272 34.1386 35.7864 34.7206C34.7394 35.306 33.9156 35.6948 33.2112 35.7931C32.8523 35.8432 32.519 35.8191 32.2008 35.7057C31.8836 35.5927 31.5952 35.396 31.3183 35.1208C30.8995 34.7044 30.8656 34.0356 30.9968 33.3398C31.1309 32.6283 31.4528 31.805 31.8581 30.9881ZM38.8002 28.1065C39.3124 27.6699 40.1928 27.291 40.1928 27.8315C40.1928 29.9138 37.6683 33.4008 35.6724 34.5167C33.5737 35.6902 32.5181 35.984 31.483 34.9551C30.1599 33.64 33.2581 28.5987 34.8016 27.0644C36.3452 25.5301 37.2271 24.7629 37.2271 25.7492C37.2271 26.2325 37.1715 26.7158 37.1277 27.0573C37.1218 27.104 37.116 27.1482 37.1106 27.1892C37.1054 27.2292 37.1005 27.2664 37.0962 27.3003C37.0855 27.3841 37.0781 27.4484 37.0764 27.488C37.074 27.5412 37.0819 27.5502 37.1057 27.5028C37.1218 27.4709 37.1589 27.4133 37.2113 27.339C37.2503 27.2837 37.2978 27.219 37.3514 27.1487C37.7196 26.6654 38.3745 25.9146 38.539 26.0781C38.6869 26.2251 38.6385 27.2553 38.5756 27.9935C38.5635 28.1359 38.5509 28.2673 38.539 28.3795C38.6024 28.2912 38.6933 28.1976 38.8002 28.1065Z" fill="black"/>
<mask id="mask6_1889:293" style="mask-type:alpha" x="31" y="25" width="10" height="11">
<path d="M34.8016 27.0645C33.2581 28.5988 30.1598 33.6401 31.4829 34.9553C32.5181 35.9842 33.5737 35.6903 35.6724 34.5169C37.6683 33.4009 40.1928 29.9139 40.1928 27.8316C40.1928 27.1784 38.9065 27.8682 38.5389 28.3797C38.6125 27.6856 38.7154 26.2536 38.5389 26.0782C38.3184 25.859 37.2159 27.2837 37.1057 27.5029C36.9954 27.7221 37.2271 26.7357 37.2271 25.7494C37.2271 24.7631 36.3451 25.5302 34.8016 27.0645Z" fill="#FFF99E"/>
</mask>
<g mask="url(#mask6_1889:293)">
<path d="M36.7667 26.009C36.3774 25.4251 31.9399 30.8746 30.6943 34.8061C31.0447 35.2343 31.7842 36.1296 31.9399 36.2853C32.1346 36.4799 36.4942 35.4289 36.7667 35.3121C37.0392 35.1954 40.0753 30.4854 40.0753 30.2518C40.0753 30.0183 40.0364 28.4613 39.6861 28.072C39.4058 27.7606 38.5573 28.4613 38.168 28.8505C38.2459 28.3445 38.4093 27.2157 38.4405 26.7486C38.4794 26.1647 37.0002 28.1499 37.0002 27.7217C37.0002 27.2935 37.1559 26.5929 36.7667 26.009Z" fill="#E0B74B"/>
</g>
<path d="M34.9394 18.4183C34.9394 18.574 34.4723 19.7288 34.2387 20.2868L32.487 21.5324L33.1098 23.4397L32.1367 23.6343L30.0348 21.5324C30.0218 20.9485 30.0036 19.734 30.0348 19.5472C30.0737 19.3136 31.7475 17.5231 32.1367 17.3284C32.526 17.1338 33.8105 17.0949 34.2387 17.1727C34.6669 17.2506 34.9394 18.2237 34.9394 18.4183Z" fill="#A82F2F"/>
<path opacity="0.2" d="M29.6846 23.6343C28.8672 23.245 28.4391 22.194 29.2176 19.4303C29.7632 19.1446 29.5919 20.339 30.1128 20.7538C31.1529 21.5819 32.7078 22.3243 32.5263 23.1282C32.3681 23.8289 30.5021 24.0235 29.6846 23.6343Z" fill="black"/>
<path d="M29.1009 20.6759C28.8906 18.5739 30.9349 16.7035 32.7906 16.5498C34.2003 16.4331 35.5824 17.7017 35.0177 19.3135C34.9035 19.7965 34.3171 20.5591 33.8499 20.9095C33.4444 21.2136 32.786 21.4933 32.4875 21.5712L32.3708 21.2598C32.6822 21.143 33.414 20.7071 33.8499 20.3645C34.3949 19.9363 35.1448 18.4873 34.2003 17.6008C33.5524 16.9928 32.2929 17.5619 31.4755 18.1847C30.658 18.8075 30.0117 19.8196 30.152 20.9095C30.3856 22.7231 31.9633 23.7204 32.7906 23.4007C33.07 23.2927 32.9926 22.9047 32.7906 22.5833C33.4607 23.4007 33.0325 23.751 32.6043 23.8289C32.2048 23.9015 31.4086 23.5622 31.0248 23.2927C30.0168 22.6653 29.2178 21.8437 29.1009 20.6759Z" fill="#FFF99E"/>
<path fill-rule="evenodd" clip-rule="evenodd" d="M32.9042 23.3212C32.876 23.3549 32.8382 23.382 32.7898 23.4008C31.9625 23.7205 30.3848 22.7232 30.1512 20.9095C30.0109 19.8197 30.6573 18.8076 31.4747 18.1848C32.2921 17.562 33.5517 16.9929 34.1995 17.6009C35.144 18.4874 34.3941 19.9364 33.8491 20.3646C33.4132 20.7071 32.6814 21.1431 32.37 21.2599L32.4867 21.5713C32.7852 21.4934 33.4436 21.2137 33.8491 20.9095C34.3163 20.5592 34.9028 19.7966 35.0169 19.3136C35.5816 17.7018 34.1995 16.4331 32.7898 16.5499C30.9342 16.7036 28.8898 18.574 29.1001 20.676C29.217 21.8437 30.0161 22.6654 31.024 23.2928C31.4078 23.5623 32.204 23.9016 32.6035 23.8289C32.8447 23.7851 33.0859 23.6548 33.1308 23.4033C33.1656 23.2083 33.0825 22.9404 32.7898 22.5833C32.9568 22.8491 33.0386 23.1603 32.9042 23.3212ZM30.8952 23.4877C31.1066 23.6351 31.4176 23.7943 31.7271 23.9083C31.8842 23.9662 32.046 24.0144 32.1989 24.0432C32.3486 24.0715 32.5053 24.0842 32.6453 24.0587C32.8888 24.0145 33.2057 23.8811 33.3265 23.5674C33.4502 23.2461 33.3207 22.8625 32.9704 22.4353L32.5921 22.7076C32.6812 22.8494 32.731 22.9889 32.7373 23.0871C32.7403 23.1344 32.7324 23.1581 32.7281 23.1665L32.7279 23.1669C32.7261 23.1704 32.7232 23.1761 32.7056 23.1829C32.4065 23.2985 31.8948 23.1873 31.3967 22.7752C30.9128 22.3748 30.4917 21.7247 30.3829 20.8797C30.257 19.902 30.8377 18.9637 31.6162 18.3705C32.0099 18.0706 32.5034 17.7894 32.9656 17.6556C33.4364 17.5194 33.8069 17.5528 34.0397 17.7712C34.4295 18.1371 34.4808 18.6213 34.3569 19.0956C34.2307 19.5788 33.9326 20.002 33.7048 20.181C33.4969 20.3444 33.2136 20.5335 32.9424 20.6968C32.6676 20.8622 32.4223 20.9908 32.288 21.0412L32.0693 21.1232L32.342 21.8504L32.5457 21.7973C32.8692 21.7129 33.5562 21.4212 33.9893 21.0964C34.2458 20.904 34.5244 20.6078 34.7528 20.3007C34.9749 20.0021 35.1704 19.6653 35.2412 19.3796C35.5471 18.4943 35.321 17.69 34.8178 17.1278C34.3182 16.5697 33.5489 16.2527 32.7705 16.3172C31.777 16.3995 30.7511 16.937 30.0014 17.7209C29.2505 18.5062 28.7541 19.5636 28.8677 20.6992C28.995 21.9713 29.8651 22.8454 30.8952 23.4877Z" fill="black"/>
<path d="M32.3308 20.5592C33.2261 21.2988 32.8757 22.8558 32.5254 23.4008C31.9026 23.284 31.1631 23.1283 30.696 22.3887C30.2289 21.6491 30.073 21.0653 30.151 20.4035C30.2188 19.8288 31.4355 19.8197 32.3308 20.5592Z" fill="#FF9BA6"/>
<path fill-rule="evenodd" clip-rule="evenodd" d="M30.9356 19.9108C31.3777 19.9299 31.9218 20.1191 32.3821 20.4993C32.8561 20.8908 32.9946 21.4939 32.9747 22.0558C32.9548 22.6173 32.7764 23.1569 32.5925 23.4429L32.5642 23.487L32.5127 23.4773C31.8911 23.3608 31.1187 23.2012 30.6318 22.4303C30.1579 21.6799 29.9947 21.0783 30.0754 20.3944C30.096 20.2195 30.2052 20.0913 30.3606 20.0121C30.5139 19.9339 30.7149 19.9013 30.9356 19.9108ZM30.4313 20.1508C30.3116 20.2118 30.2433 20.3003 30.23 20.4127C30.1546 21.0522 30.3032 21.6184 30.7635 22.3472C31.1982 23.0356 31.8779 23.1983 32.4887 23.3143C32.6462 23.0442 32.801 22.5592 32.8191 22.0503C32.8381 21.5125 32.7042 20.9673 32.2829 20.6193C31.8478 20.2599 31.3359 20.0839 30.9289 20.0663C30.725 20.0575 30.5532 20.0887 30.4313 20.1508Z" fill="black"/>
<path d="M19.8411 20.7127C18.1217 16.9425 21.8771 14.3312 25.0954 14.3312C27.8321 14.3312 28.1605 16.8618 26.0806 20.0525C24.4488 22.5561 21.0454 23.3533 19.8411 20.7127Z" fill="#CAAB86"/>
<path fill-rule="evenodd" clip-rule="evenodd" d="M20.4498 15.9428C21.6245 14.7703 23.4295 14.0976 25.0937 14.0976C25.8122 14.0976 26.3998 14.2637 26.8346 14.5895C27.2729 14.918 27.5328 15.3916 27.6231 15.9586C27.8009 17.0757 27.3257 18.5674 26.2745 20.1801C25.427 21.4802 24.1132 22.3492 22.8337 22.5426C22.1916 22.6396 21.5522 22.567 20.9882 22.2844C20.4223 22.0009 19.948 21.5137 19.6269 20.8096C19.1786 19.8268 19.082 18.9062 19.2537 18.0776C19.425 17.2506 19.8601 16.5314 20.4498 15.9428ZM25.0937 14.3311C21.8753 14.3311 18.1199 16.9424 19.8393 20.7127C21.0436 23.3533 24.447 22.556 26.0788 20.0525C28.1587 16.8618 27.8303 14.3311 25.0937 14.3311Z" fill="black"/>
<g opacity="0.2">
<mask id="mask7_1889:293" style="mask-type:alpha" x="19" y="14" width="9" height="9">
<path d="M19.8402 20.7128C18.1207 16.9425 21.8761 14.3312 25.0945 14.3312C27.8311 14.3312 28.1595 16.8618 26.0797 20.0526C24.4478 22.5561 21.0444 23.3534 19.8402 20.7128Z" fill="#CAAB86"/>
</mask>
<g mask="url(#mask7_1889:293)">
<path d="M20.809 20.3256C19.9542 19.3542 20.0305 17.7176 20.5365 15.8102C19.5634 16.3552 18.707 17.0169 18.707 20.3256C18.707 23.6342 21.2761 24.257 24.3901 23.8678C27.5042 23.4785 28.633 18.2236 28.6719 15.8102C28.7108 13.3969 25.3633 13.2411 26.1807 14.0975C26.9981 14.9539 26.8035 16.5887 25.2465 18.9632C23.6895 21.3376 21.6654 21.2987 20.809 20.3256Z" fill="black"/>
</g>
</g>
</svg>
